<svg width="75" height="63" fill="none" xmlns="http://www.w3.org/2000/svg"><path d="M64.243 27.006c2.042-4.02.699-9.434-3.384-11.953-3.867-2.412-8.165-1.554-11.065 1.233C49.203 3.85 32.98-2.636 21.86 1.009c-12.623 4.128-15.9 18.01-9.937 28.517C5.585 27.97-.914 32.849.106 40.353c1.397 9.81 11.55 10.292 19.392 10.077 1.45-.053 1.45-2.304 0-2.25-5.264.16-12.247.696-15.631-4.128-1.773-2.52-2.257-6.325-.806-9.059 2.256-4.235 7.789-4.61 11.334-1.876 1.128.858 2.525-.482 1.558-1.608-7.95-9.38-5.91-24.282 6.553-28.356C32.981-.33 50.224 6.37 47.269 19.877c-.268 1.18 1.45 2.037 2.041.858 1.72-3.538 5.157-6.003 9.186-4.342 4.566 1.876 6.123 8.148 2.256 11.578-.806.697.054 2.251 1.074 1.876 9.186-3.591 14.826 10.131 7.252 15.384-3.868 2.68-9.347 3.109-13.913 3.055-1.45-.053-1.45 2.198 0 2.198 6.983.16 16.921-1.233 19.338-8.952 2.203-6.914-3.223-14.847-10.26-14.526z" fill="#EEE"/><path d="M27.126 57.345c0-4.342.107-8.684.053-13.025-.053-.43-.376-.804-.86-.804h-1.18c1.45-1.876 3.007-3.645 4.511-5.468a408.112 408.112 0 0 1 4.566 5.468h-.967c-.483-.054-.86.375-.86.804.055 4.341-.053 8.683 0 13.025a86.183 86.183 0 0 1-5.263 0zm3.115-21.226c-.268-.322-.913-.322-1.182 0-2.148 2.572-4.35 5.145-6.392 7.825-.376.483.161 1.233.752 1.233h2.041c.054 4.342-.053 8.63 0 12.972 0 .322.162.536.43.643.108.107.215.161.43.161 2.31.107 4.62.16 6.93 0 .429 0 .859-.322.859-.804-.108-4.342 0-8.63 0-12.972.59.054 1.181.054 1.772 0 .591 0 1.182-.696.752-1.233-2.04-2.68-4.243-5.199-6.392-7.825zm10.636 19.243h1.235c.43.053.806-.376.806-.804.054-4.342-.054-8.684 0-12.972 1.773-.107 3.492-.107 5.264-.054-.053 4.342 0 8.684 0 13.026 0 .428.376.857.86.804h.86c-1.505 1.822-2.955 3.698-4.46 5.467-1.503-1.822-3.061-3.591-4.565-5.467zM51.674 53.7h-1.826c0-4.342-.054-8.63 0-12.972a.825.825 0 0 0-.806-.804c-2.31-.16-4.673-.107-6.93 0-.214 0-.376.054-.483.161-.215.107-.376.322-.376.643-.054 4.342.054 8.684 0 12.972h-2.095c-.537 0-1.074.75-.698 1.287 2.041 2.68 4.243 5.145 6.392 7.772.269.321.913.321 1.182 0 2.148-2.52 4.082-5.146 6.23-7.612.484-.59.162-1.393-.59-1.447zM25.46 8.3c1.075-.108 1.075-1.77 0-1.662-6.123.643-11.28 7.45-9.83 13.454.269 1.072 1.88.643 1.612-.43C16.114 14.786 20.465 8.836 25.46 8.3z" fill="#EEE"/><path d="M25.568 10.122c-1.612.268-3.062 1.018-4.297 2.09-.806.75.376 1.93 1.181 1.18 1.02-.912 2.203-1.448 3.546-1.662 1.074-.161.644-1.77-.43-1.608z" fill="#EEE"/></svg>