<svg width="90" height="85" fill="none" xmlns="http://www.w3.org/2000/svg"><path d="M79.155 66.535c-2.498-1.323-5.194-2.382-7.955-3.242 2.433-4.764 3.616-9.396 3.945-14.425 4.01-.464 8.02-1.125 11.965-1.986a25.362 25.362 0 0 1-.526 3.905c-1.183 6.021-3.813 11.38-7.429 15.748zm-20.84 13.036c4.864-3.573 8.546-8.338 11.636-13.764 2.498.728 4.997 1.654 7.363 2.846-5.128 5.36-11.702 9.131-19 10.918zM5.062 57.27c-1.183-2.779-1.972-5.624-2.3-8.47 5.324 1.06 10.715 1.72 16.172 2.052.723 5.095 2.564 9.925 5.194 14.16-3.287 1.257-6.509 2.78-9.402 4.5-4.076-3.309-7.428-7.411-9.664-12.242zm5.523-35.864c3.221 2.845 6.837 5.029 10.584 6.75-2.235 6.286-3.024 12.704-2.564 19.85v.133c-5.39-.397-10.782-1.059-16.107-2.184-.263-8.602 2.959-17.337 8.087-24.55zm9.993-10.19c5.588-4.102 11.702-6.55 18.342-7.741-6.18 4.5-11.045 10.984-14.595 17.667a55.19 55.19 0 0 0-2.17 4.434c-3.484-1.588-6.837-3.64-9.927-6.353 2.498-3.043 5.26-5.823 8.35-8.006zm58.643 8.006a49.369 49.369 0 0 1-7.955 5.36C67.716 15.65 61.667 7.974 53.121 3.21c5.26.993 10.19 3.242 15.055 5.955 4.273 2.383 8.02 5.89 11.045 10.058zM52.661 47.94c-.263-4.764-.592-9.528-1.118-14.226 6.311-.596 12.491-2.449 18.21-5.294 1.447 4.301 2.302 8.867 2.63 13.499.066 1.522.132 3.044.132 4.5-6.574.793-13.214 1.19-19.854 1.521zm.394 12.705c0-3.309-.132-6.683-.263-9.992 6.574-.265 13.083-.728 19.592-1.456-.395 4.632-1.513 8.867-3.814 13.367-5.062-1.257-10.321-1.787-15.515-1.919zm0 2.713c4.734.132 9.533.662 14.135 1.72-3.616 6.287-8.087 11.382-14.595 14.823.328-5.559.46-11.05.46-16.543zM41.353 80.365c-8.481-1.059-17.225-4.037-24.26-9a57.895 57.895 0 0 1 8.678-3.97c4.01 5.559 9.402 10.058 15.582 12.97zm6.508-17.006h2.498c0 5.69-.197 11.381-.525 17.072-8.481-1.985-16.042-7.08-21.301-13.962 6.377-1.919 13.148-2.978 19.328-3.11zm-2.63-12.374l4.8-.198c.197 3.242.263 6.55.263 9.793H47.86c-6.771.132-14.135 1.323-20.972 3.507a34.034 34.034 0 0 1-5.128-13.036c7.824.331 15.647.199 23.47-.066zm1.71-47.576c10.716 3.97 17.948 12.373 21.892 22.498-5.522 2.646-11.505 4.433-17.553 4.962a322.24 322.24 0 0 0-4.34-27.46zm1.578 27.659c-2.959.066-5.983-.133-8.941-.662-5.194-.926-10.19-1.985-14.858-3.772a46.685 46.685 0 0 1 1.972-4.102c4.076-7.676 9.796-14.955 17.422-19.123 1.972 9.131 3.419 18.395 4.405 27.659zM21.3 46.552c-.263-6.286.46-11.845 2.367-17.337 5.72 2.184 11.768 3.507 17.948 4.301 2.366.331 4.799.463 7.231.331.46 4.764.855 9.462 1.118 14.16l-4.734.199c-7.889.265-15.91.463-23.864.066 0-.595-.066-1.125-.066-1.72zm65.94-2.515c-4.01.86-8.02 1.522-12.03 2.052 0-1.721-.066-3.441-.198-5.294-.394-4.698-1.315-9.264-2.827-13.631 3.09-1.655 5.917-3.507 8.547-5.625 4.208 6.75 6.574 14.756 6.509 22.498zM75.343 10.754C61.667-1.554 40.827-3.142 24.917 5.195 8.547 13.797-2.235 31.995.394 50.655 3.42 72.026 27.81 83.077 47.007 83.54c8.94.265 16.896-1.92 24.522-6.551 7.692-4.632 12.557-11.117 15.91-19.454 6.311-15.815.46-35.534-12.097-46.782zM2.564 22.135A56.47 56.47 0 0 1 14.858 6.32c1.052-.926-.46-2.382-1.446-1.456C8.284 9.496 4.01 14.922.789 21.076c-.658 1.191 1.117 2.184 1.775 1.059zm.131-7.477c1.184-2.25 2.63-4.235 4.405-5.956.92-.992-.526-2.448-1.446-1.522C3.747 9.1 2.169 11.217.92 13.6c-.591 1.19 1.184 2.25 1.775 1.059zm79.221 58.428c-3.813 4.433-8.48 7.808-14.003 9.86-1.183.463-.657 2.448.592 1.984 5.785-2.183 10.848-5.624 14.858-10.388.854-.993-.592-2.449-1.447-1.456zm-1.775 6.882c-1.117 1.257-2.432 2.382-3.944 3.11-1.184.529-.132 2.316 1.052 1.786 1.643-.794 3.155-2.051 4.339-3.44.854-.993-.592-2.515-1.447-1.456z" fill="#EEE"/></svg>