<svg width="84" height="57" fill="none" xmlns="http://www.w3.org/2000/svg"><path d="M80.122 53.976c-1.822.853-6.03.213-8.069.17-10.28-.042-20.648-.34-30.93-.213-10.757.128-21.515.768-32.274.555-2.082-.043-6.246.427-6.463-2.218-.174-1.707 1.605-2.773 2.776-3.797 3.557-3.03 7.678-5.461 11.496-8.191l.26-.256c1.865.298 3.99.17 5.813.085 7.504-.384 15.052-.299 22.557-.512 3.73-.128 7.418-.213 11.149-.128 3.73.043 7.851.512 11.582.256 0 .043.043.043.043.085 3.861 3.03 7.809 6.229 11.496 9.471 1.388 1.28 3.774 3.243.564 4.693zM14.315 28.848c-.13-3.583-.217-7.124-.086-10.665.086-3.285.216-6.527.13-9.812-.044-2.09-.044-4.864 2.516-5.717 1.388-.427 3.6 0 5.032 0l19.737-.128c4.251.17 8.546.256 12.754 0 3.21-.17 14.532-1.237 15.703 2.56.434 1.322.087 3.242.087 4.65-.044 3.157.043 6.271.217 9.385.087 2.517.217 5.035.26 7.509a84.588 84.588 0 0 1 0 4.693c-.043 2.26.304 4.095-1.735 5.29-2.3 1.322-6.42.597-9.11.554-2.95 0-5.856-.085-8.806-.042-5.813.085-11.582.384-17.352.469-2.776 0-5.552-.085-8.328.043-2.56.085-6.898 1.109-9.284-.171-2.559-1.365-1.648-6.271-1.735-8.618zm68.843 20.777c-1.344-1.835-3.427-3.157-5.205-4.523-2.56-1.877-4.772-4.095-7.201-6.1 3.21-2.133 2.342-8.49 2.299-11.732-.087-6.826-.347-13.695-.52-20.52-.044-1.963-.044-4.224-1.866-5.504C68.67-.204 64.505.393 62.076.18c-6.767-.512-13.621.255-20.432.042-7.634.043-15.27.043-22.947.128-2.083 0-4.035-.213-5.38 1.536-1.735 2.304-1.344 5.674-1.258 8.319.348 8.362-.52 16.724.087 25.128.13 1.877.955 3.029 2.126 3.754-3.21 2.218-6.464 4.309-9.5 6.698C2.516 47.535 0 49.198 0 52.27c0 2.645 1.258 4.052 3.86 4.351 5.206.555 10.672.384 15.878.213 12.016-.426 24.032-.085 36.091-.384 5.206-.128 10.411 0 15.617.043 3.167 0 8.936 1.11 11.365-1.493 1.475-1.578 1.562-3.754.347-5.375z" fill="#E37B40"/><path d="M64.505 7.987c.304 8.063.39 16.083.564 24.104-7.461-.384-15.14-.043-22.6.298-7.419.299-14.88.299-22.298.427l-.39-24.872c14.922-.128 29.845.213 44.724.043zM19.304 34.565c7.678-.128 15.443-.128 23.164-.427 7.765-.34 15.747-.725 23.512-.256.477.043.911-.426.911-.895-.217-8.618-.26-17.236-.607-25.896-.044-.47-.39-.853-.911-.853-15.487.17-31.017-.171-46.503-.043a.94.94 0 0 0-.52.17c-.217.171-.391.384-.348.726l.39 26.578c0 .47.391.896.912.896zm15.443 15.657c.217-.725.477-1.45.607-2.176.087-.213.174-.47.26-.682.044 0 .044 0 .087-.043 2.343-.128 4.685-.17 7.028-.213 2.039-.043 4.208-.214 6.29.042h.043c.087.299.217.555.304.81.13.64.39 1.323.65 1.963-4.945.64-10.237.342-15.269.299zm15.79-4.138c-.174-.384-.434-.598-.868-.64-4.901-.342-9.76.128-14.618.17-.434 0-.738.256-.868.64-.65 1.536-1.128 2.944-1.432 4.565-.043.213-.043.384.044.512.087.341.347.597.78.597 5.857 0 12.104.47 17.916-.426.478-.086.781-.683.651-1.11-.564-1.407-1.041-2.858-1.605-4.308zm-8.806-40.87c1.128 0 1.128-1.75 0-1.75s-1.128 1.75 0 1.75z" fill="#E37B40"/><path d="M21.213 10.973a44.345 44.345 0 0 0 2.169 3.072c.26.34.737.554 1.214.298.347-.213.608-.81.304-1.194-.781-.982-1.475-2.005-2.17-3.072-.606-.939-2.125-.085-1.517.896zm5.682 2.858c.781.81 2.039-.426 1.258-1.237-.954-.981-1.865-1.92-2.776-2.9-.78-.811-2.039.426-1.258 1.236.91.982 1.822 1.92 2.776 2.901z" fill="#E37B40"/></svg>