<svg width="43" height="70" fill="none" xmlns="http://www.w3.org/2000/svg"><path d="M40.68 62.26c-.954 5.103-5.676 5.247-9.92 5.295-6.774.048-13.547.674-20.32.29-2.719-.145-5.915-.867-7.202-3.66-.811-1.685-.668-4.044-.764-5.874-.334-5.44-.238-10.88-.19-16.32a290.66 290.66 0 0 0-.144-18.248c-.143-3.226-.095-6.451.239-9.677.334-3.756.382-9.437 4.484-11.074 2.718-1.059 6.582-.674 9.491-.77 3.005-.096 5.963-.144 8.968-.048 2.814.096 5.866.048 8.585.818 4.34 1.204 5.39 4.285 5.629 8.474.858 13.673 1.383 27.347 1.383 41.02 0 3.13.381 6.692-.239 9.773zm2.242-10.448c-.048-4.622-.095-9.244-.238-13.866-.287-8.81-.62-17.67-1.145-26.48C41.157 5.35 38.82 1.692 32.572.68c-7.06-1.059-14.5-.674-21.56-.24-3.195.192-6.439.53-8.347 3.418C.757 6.699.71 10.744.375 14.066-.53 23.262.52 32.698.28 41.99c0 6.066-.238 12.229.334 18.343.334 3.804 1.097 6.693 4.722 8.618 2.528 1.349 6.344 1.012 9.063 1.012 4.77.048 9.587-.29 14.405-.386 5.485-.144 12.783.145 13.88-6.932.524-3.467.238-7.27.238-10.833z" fill="#EEE"/><path d="M17.5 7.23c2.67-.145 5.294-.194 7.917-.194.954 0 .954-1.54 0-1.54-2.623 0-5.247.096-7.918.192-.954.049-.954 1.59 0 1.541zm11.208-.386h.048c.715-.722-.334-1.781-1.05-1.107 0 .048 0 .048-.047.048-.668.722.381 1.781 1.05 1.059zm3.052.048l.049-.048c.667-.674-.382-1.733-1.05-1.06l-.048.049c-.715.722.334 1.781 1.05 1.06zM25.512 64.57c-.62.77-3.339.626-4.293.626-.715 0-3.577.145-3.768-.385-.858-1.926 3.864-1.54 4.58-1.54.667 0 4.865-.29 3.481 1.3zm-3.482-2.792c-2.05-.048-6.105-.482-6.343 2.503-.239 2.745 4.15 2.456 5.866 2.408 1.622-.049 5.629.144 5.724-2.263.19-3.13-3.148-2.696-5.247-2.648zm-.429-2.696c-5.58.289-11.113.096-16.694.192-.238-8.136.238-16.273.382-24.41.19-7.655-.525-15.261-.144-22.917 10.637.145 21.321-.288 31.958-.433.716 15.84.62 31.68 1.336 47.471-5.629.097-11.21-.24-16.838.097zm16.885-48.579c0-.048 0-.048-.047-.096-.096-.241-.287-.385-.62-.385-11.114.096-22.275.577-33.389.433a.604.604 0 0 0-.668.385v.096c-.047.097-.095.145-.095.241C3.19 19.073 4 26.97 3.81 34.865c-.19 8.425-.668 16.802-.382 25.18 0 .144.048.288.096.385.095.24.334.385.62.385 5.819-.145 11.638.096 17.457-.24 5.867-.338 11.734.047 17.648-.097a.879.879 0 0 0 .334-.096c.239-.097.43-.29.382-.674-.763-16.274-.62-32.643-1.383-48.916 0-.145-.048-.24-.096-.289z" fill="#EEE"/><path d="M12.205 15.847a15.224 15.224 0 0 0-3.53 4.285c-.477.819.81 1.589 1.24.77a15.79 15.79 0 0 1 3.34-3.996c.762-.577-.335-1.637-1.05-1.059zm3.243.53c-.906 1.059-1.812 2.166-2.719 3.225-.62.723.43 1.782 1.05 1.06.906-1.06 1.812-2.119 2.719-3.226.62-.722-.43-1.781-1.05-1.06z" fill="#EEE"/></svg>