<svg width="85" height="85" fill="none" xmlns="http://www.w3.org/2000/svg"><path d="M80.931 20.063c-1.82 3.584-4.515 6.897-7.48 10.008a822.845 822.845 0 0 0-18.665-18.933c.135-.136.27-.27.472-.406 4.245-3.787 9.5-9.534 15.902-7.776 2.965.811 5.391 3.38 7.413 5.612 3.234 3.584 4.784 6.627 2.358 11.495zm-15.633 17.92c-.741-.677-1.415-1.42-2.156-2.164.876-.947 1.752-1.961 2.695-2.84.809.743 1.617 1.487 2.426 2.163-1.01.947-2.022 1.894-2.965 2.84zM44.274 59.687c-3.302 3.516-6.67 6.965-9.973 10.48-2.089 2.097-3.975 4.734-6.469 6.357-.134-2.231-.336-4.463-.673-6.694 10.175-9.94 19.81-20.354 29.312-30.902a73.156 73.156 0 0 1 3.84 4.125c-5.39 5.477-10.714 11.09-16.037 16.634zM14.02 80.108c-2.156-2.84-5.728-6.355-9.164-9.128.202-.743.337-1.487.539-2.231C6 66.112 6.472 63 7.55 60.432c2.224.203 5.728.203 7.682 1.217-.809-.203 0 1.42.135 2.502.202 1.758.404 3.448.606 5.206.067.541.404 1.082 1.01 1.015 2.022-.068 4.044.067 5.998-.135 2.156-.136 2.089-.61 2.358 1.487.203 1.961.337 3.922.472 5.815-.202.135-.472.203-.741.27-3.572.88-7.278 1.624-11.051 2.3zm10.714-39.42a598.142 598.142 0 0 1 15.902-16.162 129.306 129.306 0 0 0 4.583 3.99c-5.324 5.41-10.85 10.683-15.97 16.16-4.582 4.937-8.76 10.143-13.545 14.877-.808-.203-1.886-.27-2.493-.338-1.55-.339-3.1-.541-4.65-.744 4.583-6.424 10.85-12.104 16.173-17.784zm34.905-8.453a23.082 23.082 0 0 0 2.897-2.84c.607.676 1.213 1.352 1.887 2.028-.943.947-1.887 1.894-2.695 2.908-.674-.744-1.415-1.42-2.09-2.096zm-8.288-8.182a57.383 57.383 0 0 0-2.09-1.826c1.079-1.014 2.157-2.096 3.1-3.178a51.902 51.902 0 0 1 2.022 1.893c-1.011 1.015-2.022 2.097-3.032 3.11zm3.369 3.11c-.607-.54-1.213-1.082-1.752-1.69a123.545 123.545 0 0 1 2.965-3.043c.606.609 1.28 1.217 1.886 1.893a40.136 40.136 0 0 1-3.1 2.84zm1.482 1.488a40.922 40.922 0 0 0 3.1-2.84c0 .067.067.067.067.135.607.609 1.146 1.217 1.752 1.893-.876 1.015-1.887 1.961-2.897 2.84L56.2 28.652zm-6.873-12.442c.472.473 1.01.947 1.482 1.352-1.01 1.15-2.021 2.3-3.167 3.314-.606-.474-1.212-.947-1.819-1.353 1.146-1.15 2.358-2.231 3.504-3.313zM26.013 68.005c-2.695.203-5.323.203-8.019.27-.067-2.096-.067-5.341-.808-7.235 4.784-4.733 8.962-9.872 13.544-14.808 5.189-5.613 10.714-10.887 16.037-16.296 2.83 2.434 5.526 4.936 8.221 7.505-9.434 10.414-19.002 20.692-28.975 30.564zm36.253-26.98c-5.93-6.762-12.87-12.51-19.609-18.46.54-.54 1.078-1.082 1.685-1.623 7.142 5.275 13.207 12.24 19.474 18.528l-.742.744-.808.811zm7.547-7.303c-3.37-2.84-5.93-6.085-8.962-9.264-3.167-3.38-6.537-6.558-9.973-9.669.606-.608 1.213-1.15 1.887-1.758 6.334 6.289 12.6 12.577 18.732 19-.539.542-1.145 1.083-1.684 1.691zm8.692-29.279c-4.784-4.395-9.231-5.68-15.363-3.178-5.391 2.232-9.569 7.168-13.814 11.022-6.402 5.883-12.6 11.969-18.665 18.19A732.058 732.058 0 0 0 13.48 48.734c-2.56 2.772-5.39 5.544-7.547 8.587-.068.068-.135.203-.202.338-.135.136-.135.27-.203.339-1.482 3.042-2.088 6.761-2.83 9.94C1.485 73.143.475 78.35.003 83.624c-.067 1.014 1.01 1.488 1.82 1.352 8.153-1.284 16.306-3.11 24.46-4.53 3.369-.609 4.784-2.908 7.142-5.342 3.909-4.057 7.75-8.114 11.658-12.171 7.21-7.574 14.42-15.147 21.765-22.585 6.064-6.153 14.622-12.78 17.52-21.232 2.156-6.289-1.55-10.549-5.863-14.674z" fill="#EEE"/><path d="M63.613 8.568c-.202-1.352-2.29-.811-2.021.541.337 1.893.876 3.787 1.482 5.68.405 1.217 2.426.676 2.022-.609-.607-1.825-1.078-3.719-1.483-5.612zm3.572-.744c-.405-1.284-2.426-.743-2.022.541.54 1.623 1.078 3.178 1.617 4.801.405 1.285 2.426.744 2.022-.54-.54-1.624-1.078-3.179-1.617-4.802z" fill="#EEE"/></svg>