<svg width="80" height="63" fill="none" xmlns="http://www.w3.org/2000/svg"><path d="M77.365 47.32c-.089 3.276 0 6.642-.267 9.918-.208 2.392-1.188 2.303-3.416 2.657-2.258.354-4.574.65-6.891.709-8.496.177-17.08-.207-25.605-.177-10.07 0-20.14-.296-30.209-.59-3.148-.09-8.05.324-8.228-3.69-.118-2.274-.089-4.576-.148-6.85-.149-4.9-.297-9.77 0-14.67.445-7.174.208-14.436.624-21.638 24.654-.709 49.338-.65 73.992.236 0 3.424-.149 6.819-.149 10.243-.06 7.94.565 15.882.297 23.852zM7.145 3.13c1.01-.119 2.05-.119 3.06-.208 4.218-.265 8.436-.472 12.684-.501 9.089-.06 18.178.03 27.238.088 3.92 0 7.812.03 11.733.03 4.129.03 8.584-.473 12.654.059 1.93.236 2.02.413 2.346 2.332.327 1.8.208 3.896.297 5.697v.797a1119.339 1119.339 0 0 0-73.814-.236c.09-1.388.208-2.775.387-4.133.297-2.598.772-3.69 3.416-3.926zm72.418 26.33c-.148-4.132-.06-8.265.03-12.368.03-2.657.06-5.255-.09-7.882-.118-2.096.268-4.782-.326-6.79C78.613.385 77.038.296 75.137.208c-4.9-.237-9.861-.06-14.762-.06C49.414.09 38.453.03 27.493 0 21.7 0 15.968.148 10.205.531 8.125.65 4.68.266 2.987 1.712c-1.129.945-1.277 2.48-1.515 3.808C.937 8.531.878 11.66.73 14.7.462 21.344.61 27.986.195 34.628c-.357 5.401-.149 10.745.03 16.117.089 3.011-.892 7.882 1.693 10.155 2.643 2.332 8.257 1.328 11.406 1.417 5.762.177 11.555.354 17.347.443 10.842.147 21.684-.237 32.526.177 4.158.177 8.703 0 12.802-.68 2.436-.413 3.208-1.859 3.446-4.162 1.01-9.475.386-19.158.118-28.634z" fill="#EEE"/><path d="M8.185 7.291c.119-.442.475-1.121 1.01-1.121.475.03.802.236.95.708.238.738-.178.915-.86 1.033-.328.06-.595.06-.892-.088-.327-.148-.297-.207-.208-.532zm1.07 2.45c1.485-.177 3.059-1.033 2.792-2.745-.238-1.535-1.278-2.568-2.852-2.627-1.515-.03-2.614 1.446-2.851 2.804-.297 1.712 1.366 2.746 2.91 2.568zm6.653-3.099c.149-.561.832-.768 1.307-.738.624 0 1.01.295.92.915-.088.679-.504 1.122-1.217 1.004-.564-.089-1.129-.59-1.01-1.181zm.98 3.01c1.693.119 2.882-1.091 3.06-2.715.208-1.653-1.1-2.804-2.733-2.863-1.455-.06-3.03 1.003-3.119 2.538-.089 1.624 1.218 2.893 2.792 3.04zm8.02-4.014c1.337-.03 1.515 1.83.208 2.067-.505.088-1.307-.148-1.336-.709-.06-.62.505-1.328 1.128-1.358zm.179 3.867c1.485-.088 2.792-1.358 2.792-2.863 0-1.506-1.456-2.863-2.97-2.804-1.634.059-2.852 1.446-2.941 3.04-.12 1.712 1.515 2.745 3.119 2.627zM16.591 38.14c1.337 1.682 4.307 2.863 6 4.25 1.307 1.063 2.555 2.244 3.773 3.454.505.472 2.05 1.417 2.257 2.125 1.01 3.395-1.722 3.13-3.416 2.598.179-.118.327-.236.476-.354.416-.295.594-.797.326-1.24-.207-.384-.831-.62-1.247-.325-.357.266-.713.532-1.07.768-.118.118-.207.236-.296.354a10.678 10.678 0 0 1-1.13-.62c.15-.088.268-.177.417-.266 1.01-.59.089-2.154-.921-1.564a7.624 7.624 0 0 0-1.1.827c-.474-.325-.92-.62-1.336-.945.238-.148.505-.266.743-.413 1.04-.532.119-2.096-.921-1.565-.475.266-.95.531-1.426.768-.297-.207-.594-.443-.861-.65.118-.118.297-.206.445-.295 1.01-.561.09-2.125-.92-1.565a8.068 8.068 0 0 0-1.04.709c-.416-.295-.862-.65-1.307-1.004a3.18 3.18 0 0 1 .742-.472c.446-.207.565-.856.327-1.24-.267-.443-.802-.531-1.247-.325-.476.207-.892.532-1.248.886a9.899 9.899 0 0 1-.98-.945c.297-.177.564-.383.861-.56.98-.65.06-2.215-.92-1.565-.387.266-.743.502-1.13.767a7.188 7.188 0 0 1-.95-1.83h.862c1.188 0 1.188-1.8 0-1.8h-.951c.119-.561.386-1.122.832-1.683.326.354.653.708 1.07.974.385.295 1.009.089 1.247-.325.267-.442.059-.944-.327-1.24.148.119-.149-.118-.178-.147l-.327-.325-.208-.206c.327-.266.624-.502.92-.768.357.354.684.709.981 1.063.327.384.98.324 1.307 0 .356-.354.297-.886 0-1.27a14.77 14.77 0 0 0-.92-1.003c.415-.384.86-.768 1.276-1.152.357.296.713.59 1.04.916.832.826 2.109-.443 1.277-1.27-.297-.295-.623-.59-.95-.856.505-.443 1.01-.885 1.515-1.299.326.384.683.709 1.01 1.093.772.856 2.079-.414 1.277-1.27-.267-.325-.624-.59-.891-.944.237-.148.475-.325.713-.502.326-.236.653-.502.98-.738.148.206.327.443.505.679.267.383.772.59 1.218.324.416-.236.624-.856.326-1.24l-.623-.885c.416-.295.831-.59 1.277-.827.03.03.03.06.06.089.296.266.564.531.831.797.832.797 2.109-.472 1.277-1.299a6.945 6.945 0 0 0-.475-.443c1.129-.442 2.109-.442 2.852.945.95 1.771-.03 2.184-1.248 3.395-3 3.04-6.861 5.136-9.891 8.088-1.129 1.122-1.604 2.096-.565 3.365zM29.87 21.165c-2.525-2.037-6.06-.325-8.317 1.24-4.248 2.922-7.723 6.582-11.733 9.8-6.09 5.313 1.277 11.07 5.525 14.228 2.851 2.126 6.267 5.048 9.772 6.081 2.317.68 5.882-.206 6.06-3.1.148-2.863-4.277-5.726-6.208-7.409a59.269 59.269 0 0 0-3.713-2.892c-.565-.384-1.129-.738-1.723-1.122-1.248-.827-1.723-.65-.95-1.86 1.9-3.04 17.109-10.273 11.287-14.966zm38.91 18.362c-3.088 2.45-5.732 5.284-8.94 7.586-1.426 1.004-2.644 2.214-4.218 2.982-1.634.826-3.06 1.446-4.04-.384-.415-.768-.445-1.27-.267-1.712.446.354.861.708 1.337 1.033.386.295 1.01.059 1.247-.325.268-.442.06-.944-.326-1.24a10.198 10.198 0 0 1-1.07-.826l.327-.325c.267-.265.535-.531.832-.767.356.383.742.767 1.128 1.121.387.325.921.355 1.307 0 .327-.324.357-.974 0-1.269-.386-.325-.742-.708-1.069-1.063.446-.354.891-.708 1.337-1.033.356.473.742.945 1.158 1.388.832.826 2.11-.443 1.277-1.3-.356-.354-.683-.767-1.01-1.18.387-.266.743-.56 1.13-.827.326.325.623.68.92 1.034.327.383.98.324 1.307 0 .356-.355.327-.916 0-1.27-.267-.295-.505-.59-.802-.885.505-.384.95-.768 1.426-1.181.237.177.445.354.653.56.802.857 2.08-.412 1.277-1.269a3.328 3.328 0 0 0-.594-.53c.327-.385.565-.739.684-1.123.356.03.742.06 1.128.06.476.029.891-.414.891-.886 0-.532-.415-.886-.89-.915l-1.605-.089c0-.03-.03-.03-.03-.03a5.486 5.486 0 0 0-.831-.826c.297-.118.594-.266.891-.413.446-.207.564-.827.327-1.24-.268-.443-.802-.531-1.248-.325-.564.266-1.099.532-1.663.797a21.702 21.702 0 0 0-.862-.531c.238-.118.476-.236.743-.354.446-.236.564-.856.327-1.24-.268-.472-.802-.561-1.248-.325l-1.515.709-.089.088c-.297-.177-.564-.384-.832-.59-.089-.089-.207-.177-.297-.266a6.886 6.886 0 0 1 1.04-.531c.446-.207.564-.856.327-1.24-.268-.472-.802-.531-1.248-.325a15.96 15.96 0 0 0-1.574.827c-.356-.325-.683-.65-1.04-.974.208-.118.416-.237.624-.325.446-.177.772-.59.624-1.092-.119-.443-.654-.827-1.1-.65a7.145 7.145 0 0 0-1.484.827c-.268-.207-.565-.443-.891-.68.237-.206.475-.353.742-.501 1.04-.56.119-2.125-.92-1.565a4.782 4.782 0 0 0-.892.62c-.802-3.247 2.198-2.774 3.773-2.184 3.237 1.21 6.386 3.867 9.148 5.933 3.149 2.391 9.535 6.79 4.664 11.04zm-4.217-12.96c-2.881-2.125-6.297-5.047-9.802-6.08-2.317-.68-5.882.206-6.03 3.1-.178 2.863 4.247 5.726 6.178 7.379a50.341 50.341 0 0 0 3.713 2.922c.565.384 1.159.738 1.723 1.122 1.248.827 1.723.65.98 1.86-1.93 3.04-17.139 10.273-11.317 14.966 2.525 2.037 6.06.325 8.317-1.24 4.248-2.922 7.723-6.612 11.733-9.8 6.09-5.313-1.277-11.07-5.495-14.228zM42.226 36.988a141.773 141.773 0 0 1-1.456 5.875c-.653 2.48-1.158 7.468-4.277 7.38-1.723-.06-1.812-.207-1.753-1.3.238.03.446.089.654.178.475.147.98-.178 1.129-.65.118-.472-.179-.945-.654-1.092-.327-.118-.653-.177-1.01-.236.03-.325.09-.65.119-.974.416.088.802.118 1.218.147 1.188.03 1.188-1.8 0-1.83a4.7 4.7 0 0 1-.92-.088c.029-.178.058-.384.088-.561 0-.089.03-.178.06-.266.386.03.772.088 1.158.207 1.158.265 1.634-1.476.505-1.742-.446-.118-.92-.207-1.366-.266.089-.531.178-1.063.267-1.564a6.65 6.65 0 0 1 1.515.354c.475.177 1.01-.177 1.129-.62.148-.502-.179-.945-.624-1.122-.565-.206-1.1-.295-1.664-.384.09-.383.149-.797.238-1.18.416.088.832.206 1.248.295 1.128.266 1.633-1.506.475-1.742-.446-.118-.921-.206-1.367-.324.09-.384.179-.827.268-1.3.267.06.564.148.861.207 1.129.325 1.604-1.446.475-1.741-.326-.089-.653-.148-.98-.236.06-.237.09-.473.149-.68.505.09 1.04.207 1.544.325.476.089.98-.147 1.13-.65.118-.442-.15-1.003-.654-1.091l-1.604-.355.267-1.062c.356.059.713.118 1.07.206 1.128.296 1.603-1.446.475-1.741-.327-.089-.684-.148-1.04-.207.089-.236.148-.472.238-.679.326.03.623.118.95.236.475.177 1.01-.177 1.129-.62.148-.531-.178-.944-.624-1.121-.267-.089-.535-.178-.832-.207.12-.266.238-.531.357-.768.297.119.594.237.89.266.476.089.981-.118 1.13-.62.118-.443-.149-1.033-.654-1.122-.089 0-.178-.059-.297-.088.357-.325.713-.502 1.1-.472 4.336.118.415 12.93-.06 15.025zm.06-16.856c-2.674-.059-3.446 2.303-4.19 4.517-1.633 4.9-2.91 9.978-3.86 15.055-.506 2.657-3.862 14.11 2.257 13.372 2.406-.265 3.92-2.775 4.663-4.782 1.604-4.25 2.466-8.974 3.387-13.402.475-2.155.89-4.31 1.307-6.494.267-1.476 1.069-3.365.861-4.9-.297-2.421-2.168-3.307-4.426-3.366z" fill="#EEE"/></svg>