<svg width="60" height="62" fill="none" xmlns="http://www.w3.org/2000/svg"><path d="M7.918 50.919c-.404.36-1.525 1.304-1.57 1.08-.18-.765 1.3-2.205 1.794-2.79.629-.72 1.257-1.44 1.885-2.114.718-.765 3.724-4.544 5.16-4.364-.046 1.17-3.635 4.364-4.218 4.994-.673.675-1.346 1.394-2.019 2.07a8.33 8.33 0 0 1-1.032 1.124zm3.814-1.98c1.39-1.484 2.871-2.924 4.127-4.543.628-.765.897-1.44.583-2.34a.41.41 0 0 0-.179-.36c-.09-.18-.27-.224-.449-.224-2.333-.855-4.352 2.114-5.832 3.643-1.84 1.89-4.352 4.05-5.115 6.658-.045.225 0 .495.18.675 2.378 2.385 5.249-1.98 6.685-3.509zm-1.526 6.703c.135-1.664 3.096-4.004 4.128-5.083.583-.585 3.724-4.364 4.217-3.824.808.855-6.999 8.592-8.345 8.907zm4.621-7.647a422.65 422.65 0 0 0-4.396 4.723c-1.077 1.215-1.795 1.845-1.57 3.51v.044c.044.27.179.405.313.495 2.02 1.755 5.474-2.924 6.596-4.094 1.166-1.26 5.608-4.903 4.486-7.063-1.346-2.519-4.621 1.53-5.429 2.385z" fill="#EEE"/><path d="M57.718 53.663c-.269 2.474-1.84 4.409-4.666 3.734-2.063-.495-3.634-2.474-5.114-3.914-7.583-7.693-15.075-15.52-22.567-23.303l-7.852-8.143h-.045c-.18-.225-.493-.36-.852-.225-4.262 1.35-8.255 1.53-11.844-1.71C1.548 17.18.874 11.826 3.566 8.407c.628 1.08 1.301 2.16 1.93 3.24.493.809 1.031 2.518 1.839 3.058 1.525.99 4.845.45 6.64.54.449.045.763-.315.897-.675.628-1.664 2.333-4.363 2.243-6.118-.044-.81-.852-1.754-1.21-2.474l-2.289-4.049c3.23-.36 6.012.585 8.345 3.33 3.006 3.508 2.333 8.187-.36 11.696-.223.315-.134.9.18 1.124 8.031 7.873 16.6 15.116 24.99 22.584 3.365 3.014 6.82 5.938 9.736 9.402 1.122 1.35 1.39 1.62 1.211 3.599zm-30.463-17.14c-.763-.72-1.48-1.485-2.243-2.16.314-.314.628-.63.942-.9.718.72 1.436 1.485 2.153 2.205-.314.27-.583.585-.852.855zm.852 5.623c-1.48 1.08-2.422.585-4.082.855-1.57.27-2.109 1.125-2.154 2.654 0 1.35.36 2.34-.314 3.554-.718 1.26-1.93 2.34-2.916 3.374-1.122 1.215-2.333 2.43-3.544 3.644-.763.81-1.526 1.575-2.289 2.34-.852.854-.852 1.124-2.108.99-2.154-.316-4.621-3.465-6.057-5.084-.897-.99-2.378-2.25-2.109-3.69.225-1.349 2.782-3.553 3.68-4.633 2.018-2.34 4.89-5.983 8.12-6.298 1.615-.135 3.32-.045 3.903-1.89.449-1.304 0-2.429.314-3.688.18-.765.808-1.44 1.39-2.07 3.231 2.834 6.282 5.849 9.243 8.998-.359.315-.673.674-1.077.944zM8.412 13.175c-.404.09-.225-.09 0 0zm33.604 4.094c1.884-1.89 5.428-4.23 6.28-6.793.225-.675-.09-2.115.09-2.43.314-.675 2.109-1.394 2.737-1.754.987-.63 1.974-1.17 2.961-1.755 1.346-.81 1.346-.99 2.423.09.852.855 1.346 1.125 1.122 2.25-.225.944-1.122 2.069-1.616 2.879-.448.81-.987 2.114-1.66 2.744-.807.675-1.884.495-2.826.72-2.782.585-4.666 3.734-6.55 5.668L35.69 28.2a101.666 101.666 0 0 1-2.423-2.114c2.916-2.924 5.832-5.893 8.748-8.817zm13.01 28.386c-5.787-5.803-12.068-11.157-18.26-16.51 3.634-3.644 7.269-7.288 10.858-10.977.807-.854 1.615-1.8 2.512-2.609 1.256-1.08 1.884-.9 3.455-1.215.493-.09.897-.09 1.346-.404 1.66-1.08 2.871-4.41 3.768-6.164.853-1.664.763-2.069-.583-3.509s-1.974-2.474-3.724-1.574c-2.019 1.08-5.249 2.43-6.774 4.139-.404.494-.36.63-.584 1.17V9.26c-.269 1.125-.852 2.024-1.704 2.744-.718.81-1.57 1.53-2.333 2.294-3.59 3.6-7.179 7.243-10.813 10.887-2.871-2.564-5.743-5.173-8.524-7.872 2.602-3.87 3.05-8.863.134-12.732C20.75.533 16.622-.636 11.866.31c-.583.134-.852.9-.583 1.394.942 1.53 1.795 3.104 2.647 4.634.314.495.583 1.124.897 1.62.225.314.314.63.36.764-.315 1.53-1.167 3.15-1.795 4.634L10.7 13.22c-.583-.045-1.526-.27-2.064-.09h-.09c-1.39-2.205-2.692-4.499-3.993-6.748-.314-.54-1.032-.585-1.48-.18C-.831 9.71-.92 16.144 2.265 20.148c3.68 4.633 9.108 5.128 14.312 3.599 2.782 2.924 5.608 5.803 8.39 8.682l-.942.945a233.326 233.326 0 0 0-3.455-3.104c-.359-.315-.897-.36-1.301 0-.808.765-1.75 1.71-2.243 2.699-.763 1.484-.045 2.97-.584 4.499-.179.54-3.723.584-4.53.99-1.347.63-2.603 1.889-3.68 2.924-1.57 1.44-2.96 3.014-4.307 4.633-1.032 1.215-2.737 2.79-3.41 4.184-.987 2.114 1.257 3.869 2.558 5.353 1.75 1.98 4.262 5.039 6.595 6.163 2.602 1.215 4.397-1.754 6.012-3.373 2.422-2.43 5.07-4.904 7.088-7.693.628-.855 1.032-1.485 1.122-2.565.224-1.979-.673-2.834 1.93-3.194 2.332-.314 3.678-1.26 5.293-3.059a.925.925 0 0 0 0-1.304c-.942-1.035-1.929-2.025-2.871-3.014.27-.27.538-.54.852-.81 3.5 3.599 7 7.243 10.499 10.887a710.17 710.17 0 0 0 5.742 5.848c1.885 1.98 3.77 4.364 6.326 5.443 3.635 1.485 7.179-.584 8.166-4.273.987-3.69-2.468-6.568-4.8-8.953z" fill="#EEE"/><path d="M54.308 53.483c-.493.45-1.21.765-1.839.45-.763-.36-.897-1.305-.538-1.98.493-.674 1.346-1.034 2.019-.494.628.54 1.121 1.304.358 2.024zm.315-3.284c-1.302-.945-2.827-.27-3.724.855a.35.35 0 0 0-.18.18c-.045.09-.09.18-.09.27-.538 1.304-.224 2.834 1.032 3.598 1.346.81 3.051.18 3.993-.99 1.032-1.394.18-3.013-1.031-3.913z" fill="#EEE"/></svg>