<svg width="116" height="80" fill="none" xmlns="http://www.w3.org/2000/svg"><path d="M110.644 75.756c-2.516 1.198-8.326.3-11.142.24-14.197-.06-28.515-.48-42.712-.3-14.856.18-29.713 1.078-44.57.778-2.875-.06-8.626.6-8.925-3.113-.24-2.395 2.216-3.892 3.834-5.33 4.912-4.25 10.603-7.663 15.875-11.495l.359-.36c2.576.42 5.511.24 8.027.12 10.364-.539 20.787-.419 31.15-.718 5.153-.18 10.244-.3 15.396-.18 5.152.06 10.843.718 15.995.36 0 .06.06.06.06.119 5.331 4.251 10.783 8.742 15.875 13.292 1.917 1.797 5.211 4.551.778 6.587zM19.769 40.489c-.18-5.03-.3-10-.12-14.97.12-4.61.3-9.16.18-13.77-.06-2.935-.06-6.827 3.474-8.024 1.917-.599 4.972 0 6.949 0l27.257-.18c5.87.24 11.801.36 17.612 0 4.433-.24 20.068-1.736 21.685 3.593.6 1.856.12 4.55.12 6.526-.06 4.431.06 8.802.3 13.173.12 3.533.3 7.065.36 10.538.06 2.216.06 4.371 0 6.587-.06 3.173.418 5.748-2.397 7.424-3.175 1.856-8.866.838-12.58.779-4.074 0-8.087-.12-12.16-.06-8.028.12-15.995.539-23.963.658-3.834 0-7.668-.12-11.502.06-3.534.12-9.524 1.557-12.82-.24-3.534-1.915-2.276-8.801-2.395-12.094zm95.069 29.16c-1.857-2.575-4.733-4.431-7.189-6.347-3.534-2.635-6.589-5.748-9.944-8.563 4.433-2.993 3.235-11.915 3.175-16.466-.12-9.58-.479-19.22-.719-28.8-.06-2.754-.06-5.928-2.576-7.724C94.83-.287 89.08.55 85.724.252c-9.345-.719-18.81.36-28.215.06-10.544.06-21.087.06-31.69.18-2.875 0-5.571-.3-7.428 2.155-2.396 3.233-1.857 7.963-1.737 11.676.479 11.736-.72 23.471.12 35.267.18 2.634 1.317 4.251 2.935 5.27-4.433 3.113-8.926 6.047-13.12 9.4C3.475 66.715 0 69.05 0 73.36c0 3.713 1.737 5.69 5.332 6.108 7.188.779 14.736.54 21.925.3 16.593-.6 33.187-.12 49.84-.54 7.19-.179 14.378 0 21.566.06 4.373 0 12.341 1.557 15.696-2.095 2.036-2.215 2.156-5.27.479-7.544z" fill="#EEE"/><path d="M89.079 11.21c.419 11.316.539 22.573.778 33.83-10.303-.54-20.906-.06-31.21.419-10.244.419-20.548.419-30.791.598l-.54-34.908c20.608-.18 41.215.3 61.763.06zM26.658 48.511c10.603-.18 21.326-.18 31.989-.598 10.723-.48 21.745-1.018 32.468-.36.66.06 1.258-.598 1.258-1.257-.3-12.095-.359-24.19-.838-36.345-.06-.659-.54-1.198-1.258-1.198-21.386.24-42.832-.24-64.218-.06-.3 0-.54.12-.72.24-.299.24-.538.539-.478 1.018l.539 37.303c0 .659.539 1.257 1.258 1.257zm21.326 21.976c.3-1.018.659-2.036.839-3.054.12-.3.24-.659.36-.958.059 0 .059 0 .119-.06 3.235-.18 6.47-.24 9.704-.3 2.816-.059 5.811-.299 8.687.06h.06c.12.42.3.78.419 1.138.18.898.54 1.857.898 2.755-6.829.898-14.137.479-21.086.419zm21.805-5.808c-.24-.54-.599-.838-1.198-.898-6.769-.48-13.478.18-20.188.24-.599 0-1.018.358-1.198.897-.898 2.156-1.557 4.132-1.977 6.407-.06.3-.06.539.06.719.12.479.48.838 1.079.838 8.087 0 16.713.658 24.74-.599.66-.12 1.079-.958.899-1.557-.779-1.976-1.438-4.011-2.217-6.047zM57.629 7.317c1.557 0 1.557-2.455 0-2.455-1.558 0-1.558 2.455 0 2.455z" fill="#EEE"/><path d="M29.293 15.4c.899 1.438 1.917 2.875 2.996 4.312.36.479 1.018.778 1.677.419.48-.3.839-1.138.42-1.677-1.079-1.377-2.037-2.814-2.996-4.31-.839-1.318-2.935-.12-2.097 1.257zm7.848 4.012c1.078 1.138 2.816-.598 1.737-1.736a239.062 239.062 0 0 1-3.834-4.072c-1.078-1.137-2.815.6-1.737 1.737a239.056 239.056 0 0 0 3.834 4.071z" fill="#EEE"/></svg>