<svg width="33" height="52" fill="none" xmlns="http://www.w3.org/2000/svg"><path d="M31.22 46.25c-.732 3.79-4.356 3.898-7.614 3.934-5.198.036-10.396.5-15.594.215-2.086-.108-4.539-.644-5.527-2.719-.623-1.251-.513-3.004-.586-4.363-.256-4.041-.183-8.083-.146-12.124a209.1 209.1 0 0 0-.11-13.555c-.11-2.397-.074-4.793.183-7.19.256-2.789.293-7.01 3.44-8.225 2.087-.787 5.052-.5 7.285-.572 2.306-.072 4.576-.108 6.882-.036 2.16.071 4.502.036 6.589.608 3.33.894 4.136 3.183 4.32 6.295.658 10.157 1.06 20.314 1.06 30.471 0 2.325.294 4.972-.182 7.26zm1.72-7.761c-.036-3.434-.073-6.867-.183-10.3-.22-6.546-.476-13.126-.878-19.671-.293-4.543-2.087-7.26-6.882-8.012C19.579-.28 13.869.006 8.45.327 6 .47 3.51.721 2.045 2.867.581 4.977.545 7.98.288 10.449-.407 17.28.398 24.29.215 31.193c0 4.506-.183 9.084.256 13.626.257 2.826.842 4.971 3.624 6.402 1.94 1.002 4.869.751 6.955.751 3.66.036 7.358-.214 11.055-.286 4.21-.107 9.81.107 10.652-5.15.403-2.575.183-5.4.183-8.047z" fill="#EEE"/><path d="M13.43 5.37c2.05-.107 4.063-.143 6.076-.143.732 0 .732-1.144 0-1.144-2.013 0-4.027.071-6.077.143-.732.035-.732 1.18 0 1.144zm8.602-.286h.037c.549-.536-.257-1.323-.806-.823 0 .036 0 .036-.036.036-.513.537.292 1.324.805.787zm2.343.036l.036-.036c.513-.5-.293-1.287-.805-.787l-.037.036c-.549.537.257 1.323.806.787zM19.58 47.967c-.477.572-2.563.464-3.295.464-.55 0-2.746.108-2.892-.286-.659-1.43 2.965-1.144 3.514-1.144.513 0 3.734-.215 2.672.966zm-2.673-2.075c-1.574-.036-4.685-.358-4.868 1.86-.183 2.039 3.184 1.824 4.502 1.788 1.245-.036 4.32.107 4.393-1.68.146-2.326-2.416-2.004-4.027-1.968zm-.329-2.002c-4.283.214-8.53.07-12.812.142-.183-6.044.183-12.088.293-18.133.146-5.686-.403-11.337-.11-17.024 8.163.107 16.362-.214 24.525-.322.55 11.767.476 23.534 1.025 35.265-4.32.071-8.602-.18-12.921.071zM29.536 7.801c0-.036 0-.036-.037-.071-.073-.18-.22-.286-.476-.286-8.529.071-17.094.429-25.623.321a.465.465 0 0 0-.513.287v.072c-.036.072-.073.107-.073.179-.366 5.865.256 11.73.11 17.596-.147 6.26-.513 12.482-.293 18.706 0 .107.037.214.073.286.073.178.256.286.476.286 4.466-.108 8.932.071 13.398-.179 4.502-.25 9.005.036 13.544-.072a.69.69 0 0 0 .256-.071c.183-.072.33-.215.293-.5-.586-12.09-.476-24.25-1.062-36.338a.303.303 0 0 0-.073-.215z" fill="#EEE"/><path d="M9.366 11.772a11.398 11.398 0 0 0-2.708 3.183c-.367.608.622 1.18.951.572a11.83 11.83 0 0 1 2.563-2.968c.585-.43-.257-1.216-.806-.787zm2.49.394c-.696.786-1.391 1.609-2.087 2.396-.476.536.33 1.323.805.787.696-.787 1.391-1.574 2.087-2.397.476-.536-.33-1.323-.805-.786z" fill="#EEE"/></svg>